<svg width="250" height="250" viewBox="0 0 250 250" xmlns="http://www.w3.org/2000/svg">
    <defs>
        <rect id="large-tick-shape" x="124.25" y="8" width="2" height="10" fill="#adb5bd"/>
        <rect id="small-tick-shape" x="124.5" y="8" width="1" height="6" fill="#868e96"/>
        <rect id="micro-tick-shape" x="124.625" y="8" width="0.5" height="2" fill="#6c757d"/>
    </defs>

    <g id="tick-marks-layer-centered">
        <use href="#large-tick-shape" transform="rotate(0 125 125)"/>
        <use href="#large-tick-shape" transform="rotate(12 125 125)"/>
        <use href="#micro-tick-shape" transform="rotate(13.925 125 125)"/>
        <use href="#micro-tick-shape" transform="rotate(15.85 125 125)"/>
        <use href="#micro-tick-shape" transform="rotate(17.775 125 125)"/>
        <use href="#micro-tick-shape" transform="rotate(19.7 125 125)"/>
        <use href="#small-tick-shape" transform="rotate(21.625 125 125)"/>
        <use href="#micro-tick-shape" transform="rotate(23.55 125 125)"/>
        <use href="#micro-tick-shape" transform="rotate(25.475 125 125)"/>
        <use href="#micro-tick-shape" transform="rotate(27.4 125 125)"/>
        <use href="#micro-tick-shape" transform="rotate(29.325 125 125)"/>
        <use href="#large-tick-shape" transform="rotate(31.25 125 125)"/>
        <use href="#micro-tick-shape" transform="rotate(33.175 125 125)"/>
        <use href="#micro-tick-shape" transform="rotate(35.1 125 125)"/>
        <use href="#micro-tick-shape" transform="rotate(37.025 125 125)"/>
        <use href="#micro-tick-shape" transform="rotate(38.95 125 125)"/>
        <use href="#small-tick-shape" transform="rotate(40.875 125 125)"/>
        <use href="#micro-tick-shape" transform="rotate(42.8 125 125)"/>
        <use href="#micro-tick-shape" transform="rotate(44.725 125 125)"/>
        <use href="#micro-tick-shape" transform="rotate(46.65 125 125)"/>
        <use href="#micro-tick-shape" transform="rotate(48.575 125 125)"/>
        <use href="#large-tick-shape" transform="rotate(50.5 125 125)"/>
        <use href="#micro-tick-shape" transform="rotate(52.425 125 125)"/>
        <use href="#micro-tick-shape" transform="rotate(54.35 125 125)"/>
        <use href="#micro-tick-shape" transform="rotate(56.275 125 125)"/>
        <use href="#micro-tick-shape" transform="rotate(58.2 125 125)"/>
        <use href="#small-tick-shape" transform="rotate(60.125 125 125)"/>
        <use href="#micro-tick-shape" transform="rotate(62.05 125 125)"/>
        <use href="#micro-tick-shape" transform="rotate(63.975 125 125)"/>
        <use href="#micro-tick-shape" transform="rotate(65.9 125 125)"/>
        <use href="#micro-tick-shape" transform="rotate(67.825 125 125)"/>
        <use href="#large-tick-shape" transform="rotate(69.75 125 125)"/>
        <use href="#micro-tick-shape" transform="rotate(71.675 125 125)"/>
        <use href="#micro-tick-shape" transform="rotate(73.6 125 125)"/>
        <use href="#micro-tick-shape" transform="rotate(75.525 125 125)"/>
        <use href="#micro-tick-shape" transform="rotate(77.45 125 125)"/>
        <use href="#small-tick-shape" transform="rotate(79.375 125 125)"/>
        <use href="#micro-tick-shape" transform="rotate(81.3 125 125)"/>
        <use href="#micro-tick-shape" transform="rotate(83.225 125 125)"/>
        <use href="#micro-tick-shape" transform="rotate(85.15 125 125)"/>
        <use href="#micro-tick-shape" transform="rotate(87.075 125 125)"/>
        <use href="#large-tick-shape" transform="rotate(89 125 125)"/>
        <use href="#micro-tick-shape" transform="rotate(90.925 125 125)"/>
        <use href="#micro-tick-shape" transform="rotate(92.85 125 125)"/>
        <use href="#micro-tick-shape" transform="rotate(94.775 125 125)"/>
        <use href="#micro-tick-shape" transform="rotate(96.7 125 125)"/>
        <use href="#small-tick-shape" transform="rotate(98.625 125 125)"/>
        <use href="#micro-tick-shape" transform="rotate(100.55 125 125)"/>
        <use href="#micro-tick-shape" transform="rotate(102.475 125 125)"/>
        <use href="#micro-tick-shape" transform="rotate(104.4 125 125)"/>
        <use href="#micro-tick-shape" transform="rotate(106.325 125 125)"/>
        <use href="#large-tick-shape" transform="rotate(108.25 125 125)"/>
        <use href="#micro-tick-shape" transform="rotate(110.175 125 125)"/>
        <use href="#micro-tick-shape" transform="rotate(112.1 125 125)"/>
        <use href="#micro-tick-shape" transform="rotate(114.025 125 125)"/>
        <use href="#micro-tick-shape" transform="rotate(115.95 125 125)"/>
        <use href="#small-tick-shape" transform="rotate(117.875 125 125)"/>
        <use href="#micro-tick-shape" transform="rotate(119.8 125 125)"/>
        <use href="#micro-tick-shape" transform="rotate(121.725 125 125)"/>
        <use href="#micro-tick-shape" transform="rotate(123.65 125 125)"/>
        <use href="#micro-tick-shape" transform="rotate(125.575 125 125)"/>
        <use href="#large-tick-shape" transform="rotate(127.5 125 125)"/>
        <use href="#micro-tick-shape" transform="rotate(129.425 125 125)"/>
        <use href="#micro-tick-shape" transform="rotate(131.35 125 125)"/>
        <use href="#micro-tick-shape" transform="rotate(133.275 125 125)"/>
        <use href="#micro-tick-shape" transform="rotate(135.2 125 125)"/>
        <use href="#small-tick-shape" transform="rotate(137.125 125 125)"/>
        <use href="#micro-tick-shape" transform="rotate(139.05 125 125)"/>
        <use href="#micro-tick-shape" transform="rotate(140.975 125 125)"/>
        <use href="#micro-tick-shape" transform="rotate(142.9 125 125)"/>
        <use href="#micro-tick-shape" transform="rotate(144.825 125 125)"/>
        <use href="#large-tick-shape" transform="rotate(146.75 125 125)"/>
        <use href="#micro-tick-shape" transform="rotate(148.675 125 125)"/>
        <use href="#micro-tick-shape" transform="rotate(150.6 125 125)"/>
        <use href="#micro-tick-shape" transform="rotate(152.525 125 125)"/>
        <use href="#micro-tick-shape" transform="rotate(154.45 125 125)"/>
        <use href="#small-tick-shape" transform="rotate(156.375 125 125)"/>
        <use href="#micro-tick-shape" transform="rotate(158.3 125 125)"/>
        <use href="#micro-tick-shape" transform="rotate(160.225 125 125)"/>
        <use href="#micro-tick-shape" transform="rotate(162.15 125 125)"/>
        <use href="#micro-tick-shape" transform="rotate(164.075 125 125)"/>
        <use href="#large-tick-shape" transform="rotate(166 125 125)"/>
        <use href="#micro-tick-shape" transform="rotate(167.925 125 125)"/>
        <use href="#micro-tick-shape" transform="rotate(169.85 125 125)"/>
        <use href="#micro-tick-shape" transform="rotate(171.775 125 125)"/>
        <use href="#micro-tick-shape" transform="rotate(173.7 125 125)"/>
        <use href="#small-tick-shape" transform="rotate(175.625 125 125)"/>
        <use href="#micro-tick-shape" transform="rotate(177.55 125 125)"/>
        <use href="#micro-tick-shape" transform="rotate(179.475 125 125)"/>
        <use href="#micro-tick-shape" transform="rotate(181.4 125 125)"/>
        <use href="#micro-tick-shape" transform="rotate(183.325 125 125)"/>
        <use href="#large-tick-shape" transform="rotate(185.25 125 125)"/>
        <use href="#micro-tick-shape" transform="rotate(187.175 125 125)"/>
        <use href="#micro-tick-shape" transform="rotate(189.1 125 125)"/>
        <use href="#micro-tick-shape" transform="rotate(191.025 125 125)"/>
        <use href="#micro-tick-shape" transform="rotate(192.95 125 125)"/>
        <use href="#small-tick-shape" transform="rotate(194.875 125 125)"/>
        <use href="#micro-tick-shape" transform="rotate(196.8 125 125)"/>
        <use href="#micro-tick-shape" transform="rotate(198.725 125 125)"/>
        <use href="#micro-tick-shape" transform="rotate(200.65 125 125)"/>
        <use href="#micro-tick-shape" transform="rotate(202.575 125 125)"/>
        <use href="#large-tick-shape" transform="rotate(204.5 125 125)"/>
        <use href="#micro-tick-shape" transform="rotate(206.425 125 125)"/>
        <use href="#micro-tick-shape" transform="rotate(208.35 125 125)"/>
        <use href="#micro-tick-shape" transform="rotate(210.275 125 125)"/>
        <use href="#micro-tick-shape" transform="rotate(212.2 125 125)"/>
        <use href="#small-tick-shape" transform="rotate(214.125 125 125)"/>
        <use href="#micro-tick-shape" transform="rotate(216.05 125 125)"/>
        <use href="#micro-tick-shape" transform="rotate(217.975 125 125)"/>
        <use href="#micro-tick-shape" transform="rotate(219.9 125 125)"/>
        <use href="#micro-tick-shape" transform="rotate(221.825 125 125)"/>
        <use href="#large-tick-shape" transform="rotate(223.75 125 125)"/>
        <use href="#micro-tick-shape" transform="rotate(225.675 125 125)"/>
        <use href="#micro-tick-shape" transform="rotate(227.6 125 125)"/>
        <use href="#micro-tick-shape" transform="rotate(229.525 125 125)"/>
        <use href="#micro-tick-shape" transform="rotate(231.45 125 125)"/>
        <use href="#small-tick-shape" transform="rotate(233.375 125 125)"/>
        <use href="#micro-tick-shape" transform="rotate(235.3 125 125)"/>
        <use href="#micro-tick-shape" transform="rotate(237.225 125 125)"/>
        <use href="#micro-tick-shape" transform="rotate(239.15 125 125)"/>
        <use href="#micro-tick-shape" transform="rotate(241.075 125 125)"/>
        <use href="#large-tick-shape" transform="rotate(243 125 125)"/>
        <use href="#micro-tick-shape" transform="rotate(244.925 125 125)"/>
        <use href="#micro-tick-shape" transform="rotate(246.85 125 125)"/>
        <use href="#micro-tick-shape" transform="rotate(248.775 125 125)"/>
        <use href="#micro-tick-shape" transform="rotate(250.7 125 125)"/>
        <use href="#small-tick-shape" transform="rotate(252.625 125 125)"/>
        <use href="#micro-tick-shape" transform="rotate(254.55 125 125)"/>
        <use href="#micro-tick-shape" transform="rotate(256.475 125 125)"/>
        <use href="#micro-tick-shape" transform="rotate(258.4 125 125)"/>
        <use href="#micro-tick-shape" transform="rotate(260.325 125 125)"/>
        <use href="#large-tick-shape" transform="rotate(262.25 125 125)"/>
        <use href="#micro-tick-shape" transform="rotate(264.175 125 125)"/>
        <use href="#micro-tick-shape" transform="rotate(266.1 125 125)"/>
        <use href="#micro-tick-shape" transform="rotate(268.025 125 125)"/>
        <use href="#micro-tick-shape" transform="rotate(269.95 125 125)"/>
        <use href="#small-tick-shape" transform="rotate(271.875 125 125)"/>
        <use href="#micro-tick-shape" transform="rotate(273.8 125 125)"/>
        <use href="#micro-tick-shape" transform="rotate(275.725 125 125)"/>
        <use href="#micro-tick-shape" transform="rotate(277.65 125 125)"/>
        <use href="#micro-tick-shape" transform="rotate(279.575 125 125)"/>
        <use href="#large-tick-shape" transform="rotate(281.5 125 125)"/>
        <use href="#micro-tick-shape" transform="rotate(283.425 125 125)"/>
        <use href="#micro-tick-shape" transform="rotate(285.35 125 125)"/>
        <use href="#micro-tick-shape" transform="rotate(287.275 125 125)"/>
        <use href="#micro-tick-shape" transform="rotate(289.2 125 125)"/>
        <use href="#small-tick-shape" transform="rotate(291.125 125 125)"/>
        <use href="#micro-tick-shape" transform="rotate(293.05 125 125)"/>
        <use href="#micro-tick-shape" transform="rotate(294.975 125 125)"/>
        <use href="#micro-tick-shape" transform="rotate(296.9 125 125)"/>
        <use href="#micro-tick-shape" transform="rotate(298.825 125 125)"/>
        <use href="#large-tick-shape" transform="rotate(300.75 125 125)"/>
        <use href="#micro-tick-shape" transform="rotate(302.675 125 125)"/>
        <use href="#micro-tick-shape" transform="rotate(304.6 125 125)"/>
        <use href="#micro-tick-shape" transform="rotate(306.525 125 125)"/>
        <use href="#micro-tick-shape" transform="rotate(308.45 125 125)"/>
        <use href="#small-tick-shape" transform="rotate(310.375 125 125)"/>
        <use href="#micro-tick-shape" transform="rotate(312.3 125 125)"/>
        <use href="#micro-tick-shape" transform="rotate(314.225 125 125)"/>
        <use href="#micro-tick-shape" transform="rotate(316.15 125 125)"/>
        <use href="#micro-tick-shape" transform="rotate(318.075 125 125)"/>
        <use href="#large-tick-shape" transform="rotate(320 125 125)"/>
    </g>
</svg>